<svg width="29" height="29" viewBox="0 0 29 29" fill="none" xmlns="http://www.w3.org/2000/svg">
<path d="M15.4892 15.3939C15.9712 15.2237 16.2241 14.6949 16.0539 14.2129C15.8837 13.7308 15.3549 13.478 14.8729 13.6482C14.3908 13.8183 14.138 14.3471 14.3081 14.8292C14.4783 15.3112 15.0071 15.5641 15.4892 15.3939Z" fill="#222222"/>
<path d="M22.1176 13.0539C22.5997 12.8837 22.8525 12.355 22.6823 11.8729C22.5121 11.3908 21.9834 11.138 21.5013 11.3082C21.0192 11.4784 20.7664 12.0071 20.9366 12.4892C21.1068 12.9713 21.6355 13.2241 22.1176 13.0539Z" fill="#222222"/>
<path fill-rule="evenodd" clip-rule="evenodd" d="M17.7461 14.7354C17.9339 14.6481 18.1569 14.7296 18.2442 14.9174C18.3175 15.0751 18.4682 15.292 18.6663 15.4346C18.8523 15.5685 19.0607 15.6272 19.3091 15.5395C19.5576 15.4519 19.6829 15.2753 19.7436 15.0543C19.8082 14.8189 19.7894 14.5554 19.7475 14.3867C19.6975 14.1857 19.8199 13.9823 20.0209 13.9323C20.2219 13.8824 20.4253 14.0048 20.4753 14.2058C20.5408 14.4693 20.5729 14.8667 20.4668 15.253C20.3567 15.6536 20.0896 16.0594 19.5588 16.2468C19.028 16.4342 18.5653 16.286 18.2281 16.0433C17.9031 15.8092 17.6785 15.4798 17.5641 15.2335C17.4768 15.0457 17.5583 14.8227 17.7461 14.7354Z" fill="#222222"/>
<path d="M26.9633 19.7637C25.4703 21.4132 23.3988 22.4339 21.1093 22.4339C16.5519 22.4339 12.8588 18.3879 12.8588 13.3988C12.8588 9.19375 15.4804 5.6618 19.0306 4.65215L18.4163 3.47976C16.6805 0.173413 12.3231 0.173413 10.5837 3.47976L1.60813 20.5848C-0.124122 23.8837 2.05101 28 5.52266 28H23.4773C26.949 28 29.1241 23.8837 27.3919 20.5848L26.9633 19.7674V19.7637Z" fill="#222222"/>
</svg>
