<svg width="16" height="16" viewBox="0 0 16 16" fill="currentColor" xmlns="http://www.w3.org/2000/svg">
<path d="M6.34816 12.5856C6.32849 12.9309 6.33 13.2367 6.29142 13.5363C6.18174 14.391 5.42073 15.0406 4.59997 14.998C3.74366 14.9539 3.04469 14.2494 3.00081 13.3869C2.98568 13.0819 3.18312 12.8264 3.45469 12.8008C3.70962 12.7768 3.93126 12.9727 3.96984 13.2832C4.01296 13.6308 4.15896 13.8801 4.50844 13.9714C4.78077 14.0434 5.02132 13.9583 5.17035 13.7368C5.26944 13.5897 5.32391 13.3807 5.32467 13.1988C5.33374 10.5912 5.32013 7.9845 5.33979 5.37698C5.34358 4.87298 5.3935 4.34574 5.54706 3.87193C5.90638 2.76404 6.92609 2.051 8.08197 2.00223C9.15387 1.95655 10.2167 2.61695 10.6766 3.65361C11.1744 4.77698 11.0019 5.81983 10.2394 6.76668C10.1887 6.82939 10.132 6.88746 10.0798 6.94939C10.0745 6.95559 10.0768 6.96952 10.076 6.97959C12.3477 8.19818 12.3832 10.6393 11.3401 12.1699C10.3914 13.5619 8.08272 14.1781 6.34891 12.5848L6.34816 12.5856ZM6.34286 7.60592H6.3126C6.3126 8.47458 6.29445 9.34323 6.31639 10.2119C6.35118 11.5853 7.53732 12.6452 8.88004 12.5461C9.9943 12.4641 11.3166 11.2973 11.042 9.81705C10.8521 8.7951 10.1653 7.95663 9.16446 7.76773C8.85583 7.70966 8.53055 7.73831 8.21284 7.73366C7.90344 7.72979 7.67423 7.53005 7.66516 7.24591C7.65684 6.97572 7.85654 6.76281 8.15459 6.72797C8.20376 6.72178 8.25444 6.72565 8.30437 6.72178C9.24314 6.65132 9.9875 5.81673 9.97312 4.85053C9.95799 3.84019 9.17506 3.0296 8.18182 2.99631C7.2544 2.96534 6.38674 3.73799 6.34967 4.69491C6.3126 5.66421 6.34135 6.63507 6.34135 7.60592H6.34286Z"/>
</svg>
