<svg width="16" height="16" viewBox="0 0 16 16" fill="currentColor" xmlns="http://www.w3.org/2000/svg">
<path d="M10.6255 9.32777C11.7717 10.7333 12.4879 12.3728 12.9547 14.1508C13.0719 14.5957 12.9596 14.8875 12.6411 14.9805C12.353 15.065 12.1234 14.8731 12.0055 14.4434C11.598 12.9601 11.0365 11.5591 10.1163 10.3517C10.064 10.2831 10.0075 10.2191 10.0174 10.2305C9.38458 10.5223 8.80827 10.904 8.18465 11.0518C6.71917 11.3984 5.08278 10.7326 4.0008 9.28283C3.80729 9.02381 3.87791 8.71603 4.16394 8.49739C5.99667 7.09945 7.70369 6.86177 9.68827 8.41207C9.74477 8.45625 9.80268 8.49815 9.88743 8.56138C10.4496 7.65863 10.6276 6.69798 10.3663 5.6619C9.94887 4.00876 8.46927 2.88888 6.97342 3.07324C5.27841 3.28198 4.07142 4.64564 3.9895 6.44734C3.96902 6.88919 3.81647 7.08498 3.49371 7.08346C3.15894 7.08346 2.99721 6.86024 3.00004 6.40544C3.01204 4.29215 4.6336 2.316 6.57792 2.04403C9.30901 1.66236 11.5309 3.80611 11.4631 6.77111C11.4419 7.71043 11.1248 8.55072 10.6255 9.32777ZM5.24875 9.07561C6.17183 10.2511 8.21784 10.405 9.15999 9.36891C8.06035 8.23837 6.282 8.10505 5.24875 9.07561Z"/>
</svg>
