<svg width="30" height="30" viewBox="0 0 30 30" fill="none" xmlns="http://www.w3.org/2000/svg">
<path d="M27 15.5C27 13.2 25.208 11.3333 23 11.3333C25.208 11.3333 27 9.46667 27 7.16667C27 4.86667 25.208 3 23 3H7C4.792 3 3 4.86667 3 7.16667V23.8042C3 23.8042 3 23.8208 3 23.8333C3 26.1333 4.792 28 7 28H23C25.208 28 27 26.1333 27 23.8333C27 21.5333 25.208 19.6667 23 19.6667C25.208 19.6667 27 17.8 27 15.5Z" fill="#FFF6E8"/>
<path d="M10.2715 15.1184C10.9486 15.1064 11.4874 14.5486 11.4748 13.8725C11.4623 13.1963 10.9032 12.6578 10.2261 12.6698C9.54893 12.6817 9.01016 13.2395 9.0227 13.9157C9.03524 14.5919 9.59433 15.1303 10.2715 15.1184Z" fill="#FF5A00"/>
<path d="M19.4486 15.158C20.1257 15.1461 20.6645 14.5883 20.652 13.9121C20.6394 13.236 20.0803 12.6975 19.4032 12.7095C18.7261 12.7214 18.1873 13.2792 18.1998 13.9554C18.2124 14.6315 18.7715 15.17 19.4486 15.158Z" fill="#FF5A00"/>
<path fill-rule="evenodd" clip-rule="evenodd" d="M13.2556 15.2907C13.5268 15.2601 13.7728 15.4576 13.8051 15.7318C13.8322 15.962 13.9321 16.2998 14.1218 16.564C14.3 16.812 14.537 16.9745 14.8843 16.9691C15.2316 16.9637 15.4612 16.7938 15.628 16.5404C15.8057 16.2705 15.8902 15.9298 15.9069 15.6989C15.9268 15.4239 16.1637 15.2189 16.4361 15.241C16.7085 15.2631 16.9132 15.504 16.8933 15.779C16.8672 16.1396 16.7443 16.6552 16.4528 17.098C16.1504 17.5573 15.649 17.9566 14.9069 17.9682C14.1647 17.9798 13.6457 17.5965 13.3228 17.147C13.0115 16.7136 12.8653 16.2022 12.823 15.8427C12.7907 15.5685 12.9844 15.3214 13.2556 15.2907Z" fill="#FF5A00"/>
</svg>
