<svg width="29" height="29" viewBox="0 0 29 29" fill="none" xmlns="http://www.w3.org/2000/svg">
<path d="M28.976 19.8132L28.0114 8.03294C27.7124 4.39565 24.7083 1.70861 21.302 2.02536C17.917 2.34211 15.4112 5.5025 15.6675 9.10776H13.3325C13.5888 5.5025 11.083 2.34211 7.69805 2.02536C4.29173 1.70861 1.28407 4.39565 0.988638 8.03294L0.0240494 19.8132C-0.274937 23.4505 2.24865 26.6536 5.65497 26.9739C5.87565 26.9953 6.09277 27.0024 6.30989 26.9988C6.12481 26.3048 6.02514 25.5752 6.02514 24.8207C6.02514 20.1406 9.81943 16.3468 14.5 16.3468C19.1806 16.3468 22.9749 20.1406 22.9749 24.8207C22.9749 25.5752 22.8752 26.3048 22.6901 26.9988C22.9072 27.0024 23.1243 26.9988 23.345 26.9739C26.7513 26.6572 29.2749 23.4505 28.976 19.8132Z" fill="#222222"/>
<path d="M10.9257 22.3928C11.4369 22.3928 11.8513 21.9784 11.8513 21.4672C11.8513 20.9559 11.4369 20.5415 10.9257 20.5415C10.4144 20.5415 10 20.9559 10 21.4672C10 21.9784 10.4144 22.3928 10.9257 22.3928Z" fill="#222222"/>
<path d="M17.955 22.3928C18.4662 22.3928 18.8806 21.9784 18.8806 21.4672C18.8806 20.9559 18.4662 20.5415 17.955 20.5415C17.4437 20.5415 17.0293 20.9559 17.0293 21.4672C17.0293 21.9784 17.4437 22.3928 17.955 22.3928Z" fill="#222222"/>
<path fill-rule="evenodd" clip-rule="evenodd" d="M13.2732 22.5232C13.4793 22.5034 13.6625 22.6545 13.6823 22.8607C13.6989 23.0337 13.7688 23.2884 13.9082 23.4889C14.039 23.6771 14.2159 23.8018 14.4794 23.8018C14.7428 23.8018 14.9198 23.6771 15.0506 23.4889C15.1899 23.2884 15.2598 23.0337 15.2765 22.8607C15.2963 22.6545 15.4794 22.5034 15.6856 22.5232C15.8917 22.543 16.0428 22.7262 16.023 22.9323C15.9971 23.2026 15.895 23.5881 15.6664 23.917C15.4292 24.2581 15.0423 24.5518 14.4794 24.5518C13.9164 24.5518 13.5295 24.2581 13.2923 23.917C13.0637 23.5881 12.9616 23.2026 12.9357 22.9323C12.9159 22.7262 13.067 22.543 13.2732 22.5232Z" fill="#222222"/>
</svg>
