<svg width="29" height="29" viewBox="0 0 29 29" fill="none" xmlns="http://www.w3.org/2000/svg">
<path d="M13.6669 7.97575C14.0352 8.33028 14.6212 8.31912 14.9758 7.9508C15.3303 7.58248 15.3191 6.99649 14.9508 6.64195C14.5825 6.28741 13.9965 6.29858 13.642 6.6669C13.2874 7.03522 13.2986 7.62121 13.6669 7.97575Z" fill="#222222"/>
<path d="M18.7313 12.8506C19.0996 13.2052 19.6856 13.194 20.0401 12.8257C20.3947 12.4574 20.3835 11.8714 20.0152 11.5168C19.6468 11.1623 19.0609 11.1735 18.7063 11.5418C18.3518 11.9101 18.3629 12.4961 18.7313 12.8506Z" fill="#222222"/>
<path fill-rule="evenodd" clip-rule="evenodd" d="M15.2677 9.69754C15.43 9.82626 15.4571 10.0621 15.3284 10.2244C15.2204 10.3606 15.0941 10.5926 15.0555 10.8336C15.0193 11.0599 15.0602 11.2725 15.25 11.4552C15.4398 11.6379 15.6538 11.6708 15.8786 11.6259C16.118 11.5781 16.345 11.4431 16.477 11.33C16.6342 11.1952 16.8709 11.2133 17.0057 11.3706C17.1405 11.5278 17.1224 11.7645 16.9651 11.8993C16.759 12.0761 16.4181 12.283 16.0254 12.3614C15.6179 12.4427 15.1354 12.386 14.7299 11.9956C14.3243 11.6052 14.2492 11.1252 14.315 10.715C14.3783 10.3195 14.5721 9.97099 14.7409 9.75827C14.8696 9.59602 15.1054 9.56883 15.2677 9.69754Z" fill="#222222"/>
<path d="M17.2323 0.0233504C17.2261 0.022949 17.2213 0.017844 17.2213 0.0116828V0.0116828C17.2213 0.00523057 17.2161 0 17.2096 0H8.34911C8.34599 0 8.34345 0.00253391 8.34345 0.00565964V0.00565964C8.34345 0.00878537 8.34092 0.0113221 8.33779 0.0112898C8.27634 0.010656 8.21821 0 8.15655 0C4.75493 0 2 2.78077 2 6.21429V22.7857C2 26.2192 4.75493 29 8.15655 29C11.5582 29 14.3131 26.2192 14.3131 22.7857V22.7857C14.3131 21.7895 15.239 21.0558 16.2347 21.0867C16.3401 21.0899 16.4459 21.0916 16.5522 21.0916C22.32 21.0916 27 16.3715 27 10.5458C27 4.72405 22.6846 0.379371 17.2323 0.0233504ZM20.294 15.066V15.066C18.9863 16.3859 16.7749 16.1435 15.4672 14.8235L11.7279 11.0492C10.411 9.71993 10.1665 7.50201 11.4834 6.17278V6.17278C13.9169 3.7165 17.8605 3.7165 20.294 6.17278C22.7274 8.62907 22.7274 12.6097 20.294 15.066Z" fill="#222222"/>
</svg>
