<svg width="16" height="16" viewBox="0 0 16 16" fill="currentColor" xmlns="http://www.w3.org/2000/svg">
<path d="M8.86556 3.21026C9.08871 3.01922 9.24979 2.82219 9.46039 2.71036C11.1633 1.81039 13.2887 2.10262 14.696 3.41395C16.0585 4.68402 16.396 6.75287 15.5056 8.38039C15.4672 8.45095 15.4275 8.52084 15.3814 8.58674C15.2127 8.82638 14.9874 8.91158 14.7064 8.78045C14.4484 8.65997 14.3912 8.39038 14.5091 8.10481C14.6729 7.70675 14.8815 7.30935 14.947 6.89399C15.152 5.60129 14.6681 4.53691 13.567 3.77673C12.4512 3.00657 11.2393 2.94267 9.99664 3.51779C9.82788 3.59634 9.65982 3.67689 9.56011 3.72348C9.90459 4.3705 10.3076 4.99821 10.5824 5.67384C11.0106 6.72691 11.0154 7.82657 10.726 8.91957C10.6744 9.11327 10.5378 9.28701 10.4129 9.51999C10.6905 9.56858 11.0196 9.62783 11.3495 9.68241C11.4771 9.70371 11.6131 9.69639 11.7351 9.733C11.984 9.80755 12.1012 9.9926 12.0656 10.2316C12.0287 10.4825 11.8683 10.6569 11.5824 10.6343C11.0768 10.5937 10.5733 10.5298 10.0678 10.4752C8.88858 12.2039 7.21707 13.1671 4.98142 12.9761C2.69627 12.781 0.889478 11.264 0.246538 9.15122C-0.586774 6.41405 0.750707 3.50315 3.37825 2.43411C5.17667 1.70256 6.90467 1.90758 8.51969 2.95865C8.65706 3.04784 8.78467 3.15035 8.86556 3.20893V3.21026ZM9.16472 9.9926C9.07407 9.92737 8.97992 9.86147 8.88788 9.79357C7.15361 8.51485 6.63619 6.29091 7.65918 4.45171C7.77005 4.25268 7.97089 4.09957 8.16544 3.8859C8.17381 3.89056 8.11733 3.86793 8.06991 3.83398C6.81053 2.94533 5.42772 2.70104 3.96471 3.24421C2.26601 3.87525 1.31067 5.136 1.06032 6.82809C0.809284 8.5255 1.34623 10.0099 2.76112 11.1122C4.83568 12.7291 7.84118 12.1926 9.16332 9.9926H9.16472ZM8.77491 4.48166C7.72194 6.35348 8.09431 8.22197 9.6647 9.11394C10.1403 7.44382 9.9541 5.88752 8.77491 4.48166Z"/>
</svg>
