<svg width="16" height="16" viewBox="0 0 16 16" xmlns="http://www.w3.org/2000/svg">
<path d="M5.45889 12.9984C5.44285 12.9984 5.42591 12.9984 5.40898 12.9984C5.28868 12.9961 5.17551 12.9327 5.09709 12.8248C4.97323 12.6542 4.96788 12.4187 5.08105 12.1942C5.58988 11.1873 6.11475 10.1663 6.62179 9.17822C6.83031 8.77218 7.03883 8.36614 7.24735 7.95932L7.82926 6.82413C8.40135 5.70771 8.97256 4.59208 9.54376 3.47567C9.71664 3.13769 9.89397 3 10.1569 3C10.1889 3 10.2228 3.00235 10.2575 3.00626C10.4572 3.02973 10.606 3.11109 10.6897 3.24175C10.794 3.40448 10.7842 3.6337 10.6648 3.86997C10.3137 4.5647 9.9519 5.26882 9.60169 5.94946C9.42168 6.29995 9.24079 6.65045 9.06167 7.00094C8.11976 8.83946 7.17874 10.6788 6.23772 12.5181C6.0889 12.8091 5.95434 13 5.46066 13L5.45889 12.9984Z"/>
<path d="M11.5962 11.2225C11.4438 11.2225 11.2959 11.1685 11.1809 11.0707C11.0669 10.9737 11.0027 10.8446 11 10.7085C10.9983 10.5645 11.066 10.4229 11.1925 10.3095C11.7058 9.85025 12.2209 9.40509 12.7671 8.93412C12.9908 8.74088 13.2162 8.54607 13.4453 8.34735C13.4791 8.31763 13.4978 8.27851 13.4978 8.23626C13.4978 8.1948 13.4791 8.1549 13.4453 8.12517C13.2154 7.92332 12.989 7.72617 12.7653 7.53058C12.2351 7.06743 11.7334 6.6301 11.2317 6.18181C11.0678 6.03551 10.984 5.85557 11.0036 5.68893C11.0196 5.54654 11.1052 5.42528 11.2522 5.33922C11.3725 5.26802 11.4919 5.23204 11.6087 5.23204C11.7602 5.23204 11.9072 5.29228 12.0453 5.41119C13.0746 6.2976 13.9799 7.09325 14.8122 7.84587C15.0956 8.1017 15.0965 8.3497 14.8167 8.60318C13.9496 9.38632 13.0345 10.1914 12.0177 11.0645C11.8974 11.1677 11.7512 11.2225 11.5962 11.2225Z"/>
<path d="M4.46226 10.9894C4.41414 10.9894 4.36335 10.9847 4.31166 10.9753C4.18245 10.9518 4.02918 10.8751 3.91244 10.7742C3.03291 10.0169 2.14179 9.2369 1.26583 8.45455C0.906706 8.13379 0.91116 7.88187 1.28097 7.55563C2.12308 6.8124 3.00261 6.03943 3.89551 5.25943C4.0773 5.10061 4.26978 5.01612 4.45068 5.01612C4.59682 5.01612 4.73138 5.07089 4.85079 5.17963C5.10297 5.40964 5.06199 5.71711 4.74207 6.00188C4.24483 6.44391 3.75293 6.87264 3.23163 7.32718C3.01598 7.51495 2.79855 7.70428 2.58022 7.89595C2.54636 7.92568 2.52765 7.9648 2.52765 8.00705C2.52765 8.04929 2.54636 8.08841 2.58022 8.11814L3.23341 8.69082C3.76808 9.15945 4.29117 9.6179 4.81336 10.0771C5.02901 10.2665 5.0709 10.484 4.93723 10.7234C4.8401 10.8978 4.67613 10.9909 4.46226 10.9909V10.9894Z"/>
</svg>
