<svg width="30" height="30" viewBox="0 0 30 30" fill="none" xmlns="http://www.w3.org/2000/svg">
<path d="M19.6667 5.66667C19.6667 3.09067 17.576 1 15 1C12.424 1 10.3333 3.09067 10.3333 5.66667C5.17667 5.66667 1 9.84333 1 15C1 20.1567 5.17667 24.3333 10.3333 24.3333C10.3333 26.9093 12.424 29 15 29C17.576 29 19.6667 26.9093 19.6667 24.3333C24.8233 24.3333 29 20.1567 29 15C29 9.84333 24.8233 5.66667 19.6667 5.66667Z" fill="#FFF6E8"/>
<path d="M10.503 15.1184C11.1802 15.1064 11.7189 14.5486 11.7064 13.8725C11.6939 13.1963 11.1348 12.6578 10.4576 12.6698C9.78049 12.6817 9.24173 13.2395 9.25427 13.9157C9.26681 14.5919 9.8259 15.1303 10.503 15.1184Z" fill="#FF5A00"/>
<path d="M19.6802 15.158C20.3573 15.1461 20.8961 14.5883 20.8835 13.9121C20.871 13.236 20.3119 12.6975 19.6348 12.7095C18.9576 12.7214 18.4189 13.2792 18.4314 13.9554C18.4439 14.6315 19.003 15.17 19.6802 15.158Z" fill="#FF5A00"/>
<path fill-rule="evenodd" clip-rule="evenodd" d="M13.4872 15.2907C13.7584 15.2601 14.0044 15.4576 14.0367 15.7318C14.0638 15.962 14.1637 16.2998 14.3534 16.564C14.5315 16.812 14.7686 16.9745 15.1159 16.9691C15.4632 16.9637 15.6927 16.7938 15.8595 16.5404C16.0372 16.2705 16.1218 15.9298 16.1385 15.6989C16.1584 15.4239 16.3953 15.2189 16.6677 15.241C16.9401 15.2631 17.1448 15.504 17.1249 15.779C17.0988 16.1396 16.9758 16.6552 16.6843 17.098C16.3819 17.5573 15.8806 17.9566 15.1385 17.9682C14.3963 17.9798 13.8773 17.5965 13.5544 17.147C13.2431 16.7136 13.0969 16.2022 13.0546 15.8427C13.0223 15.5685 13.216 15.3214 13.4872 15.2907Z" fill="#FF5A00"/>
</svg>
