<svg width="16" height="16" viewBox="0 0 16 16" fill="none" xmlns="http://www.w3.org/2000/svg">
<rect width="16" height="16"/>
<g clip-path="url(#clip0_331_791)">
<path d="M15.9587 8.36782C15.8539 7.79168 15.5252 7.38642 14.9884 7.2139C14.4818 7.04952 14.08 7.30179 13.7703 7.70053C13.5178 8.02604 13.2907 8.37108 13.0589 8.71286C11.9281 10.3713 10.059 11.5513 8.01032 11.5708C8.00715 11.5708 8.00238 11.5708 7.99921 11.5708C7.99603 11.5708 7.99127 11.5708 7.98809 11.5708C5.93945 11.5496 4.07027 10.3697 2.93955 8.71286C2.70769 8.3727 2.47901 8.02604 2.22809 7.70053C1.92 7.30179 1.51663 7.05115 1.01002 7.2139C0.473251 7.38805 0.144516 7.79168 0.0397022 8.36782C-0.0698759 8.97652 0.0397022 9.55103 0.330323 10.0881C1.226 11.7417 2.58859 13.1104 4.18303 13.9812C5.43444 14.694 6.73191 15.0098 7.99762 15.0016C9.26491 15.0098 10.5624 14.694 11.8122 13.9812C13.4066 13.1104 14.7676 11.7433 15.6649 10.0881C15.9555 9.55103 16.0667 8.97652 15.9555 8.36782H15.9587Z" fill="#222222"/>
<path d="M4.45936 3.65613C5.17505 3.65613 5.75524 3.06153 5.75524 2.32806C5.75524 1.59459 5.17505 1 4.45936 1C3.74366 1 3.16347 1.59459 3.16347 2.32806C3.16347 3.06153 3.74366 3.65613 4.45936 3.65613Z" fill="#222222"/>
<path d="M10.9403 3.65613C11.656 3.65613 12.2362 3.06153 12.2362 2.32806C12.2362 1.59459 11.656 1 10.9403 1C10.2247 1 9.64447 1.59459 9.64447 2.32806C9.64447 3.06153 10.2247 3.65613 10.9403 3.65613Z" fill="#222222"/>
</g>
<defs>
<clipPath id="clip0_331_791">
<rect width="16" height="14" transform="translate(0 1)"/>
</clipPath>
</defs>
</svg>
