<svg width="16" height="16" fill="currentColor" viewBox="0 0 16 16" xmlns="http://www.w3.org/2000/svg">
<path d="M15.982 8.93345C15.9402 8.71603 15.807 8.56358 15.5902 8.49861C15.3866 8.43613 15.2246 8.5311 15.0993 8.68104C14.9975 8.8035 14.9061 8.93345 14.812 9.06091C14.1174 10.0131 12.7282 10.5454 11.4486 9.74816C10.7592 9.31831 10.3727 9.3683 9.75639 9.9056C9.59971 10.0431 9.53181 10.0605 9.45869 9.83813C9.32812 9.44577 9.22367 9.04091 9.0017 8.68104C8.5656 7.97379 7.9023 7.85634 7.24162 8.37615C6.84991 8.68354 6.53654 9.05341 6.26757 9.46826C5.80797 10.178 5.04805 10.4654 4.3482 10.213C4.63545 9.77815 4.91487 9.33831 5.10028 8.85348C5.45543 7.92881 5.59644 6.98165 5.2648 6.02699C4.88353 4.91489 3.7058 4.66248 2.83098 5.47969C2.47061 5.81457 2.20686 6.20693 2.06323 6.66676C1.70547 7.81885 1.7812 8.95095 2.34265 10.0306C2.468 10.273 2.39227 10.3429 2.18597 10.4379C1.69763 10.6603 1.19102 10.7453 0.653078 10.7103C0.243089 10.6853 0.0211212 10.8953 0.00284142 11.2826C-0.0154383 11.7 0.216976 11.9474 0.668746 11.9849C1.48872 12.0523 2.25647 11.8849 2.93543 11.4401C3.22008 11.2526 3.45249 11.1926 3.76063 11.3801C4.01916 11.535 4.3247 11.5825 4.63545 11.595C5.7688 11.6325 6.5731 11.1102 7.17372 10.2405C7.34869 9.98807 7.50537 9.72567 7.73256 9.51075C7.98326 9.27583 8.0616 9.28832 8.18956 9.60821C8.33579 9.97308 8.40369 10.3629 8.60738 10.7078C9.05393 11.465 9.73289 11.575 10.3831 10.9677C10.5894 10.7753 10.7487 10.7503 10.9864 10.9027C12.8013 12.0673 14.9426 11.1727 15.8644 9.58322C15.982 9.38079 16.0263 9.16587 15.982 8.93595V8.93345ZM3.60395 9.22585C3.53867 9.31082 3.4995 9.46326 3.37154 9.44327C3.25664 9.42578 3.23574 9.27333 3.19135 9.17586C3.02161 8.8035 2.93543 8.41364 2.94066 8.00378C2.95633 7.46898 3.05295 6.95916 3.45249 6.5493C3.59612 6.40186 3.76325 6.25941 3.99566 6.30939C4.24635 6.36437 4.2803 6.58179 4.32731 6.77672C4.44743 7.27654 4.29597 7.75137 4.1419 8.21871C4.02177 8.58108 3.83898 8.91846 3.60134 9.22335L3.60395 9.22585Z"/>
<path d="M11.3491 7.16173C11.6376 7.16173 11.8714 6.93795 11.8714 6.66191C11.8714 6.38586 11.6376 6.16209 11.3491 6.16209C11.0607 6.16209 10.8268 6.38586 10.8268 6.66191C10.8268 6.93795 11.0607 7.16173 11.3491 7.16173Z"/>
<path d="M13.9605 7.16173C14.2489 7.16173 14.4828 6.93795 14.4828 6.66191C14.4828 6.38586 14.2489 6.16209 13.9605 6.16209C13.6721 6.16209 13.4382 6.38586 13.4382 6.66191C13.4382 6.93795 13.6721 7.16173 13.9605 7.16173Z"/>
</svg>
