<svg width="180" height="97" viewBox="0 0 180 97" fill="none" xmlns="http://www.w3.org/2000/svg">
<g clip-path="url(#clip0_579_766)">
<path d="M39.8793 17.6366C39.8793 7.89814 31.6086 0 21.4107 0C11.2128 0 2.94208 7.89814 2.94208 17.6366C2.94208 27.3751 11.2128 35.2733 21.4107 35.2733C31.6086 35.2733 39.8793 27.3751 39.8793 17.6366Z" fill="white"/>
<path d="M180 17.6366C180 7.89814 171.729 0 161.531 0C151.333 0 143.063 7.89814 143.063 17.6366C143.063 27.3751 151.333 35.2733 161.531 35.2733C171.729 35.2733 180 27.3751 180 17.6366Z" fill="white"/>
<path d="M36.9373 17.6366C36.9373 7.89814 28.6665 0 18.4686 0C8.27073 0 0 7.89814 0 17.6366C0 27.3751 8.27073 35.2733 18.4686 35.2733C28.6665 35.2733 36.9373 27.3751 36.9373 17.6366Z" fill="#222222"/>
<path d="M177.058 17.6366C177.058 7.89814 168.787 0 158.589 0C148.391 0 140.121 7.89814 140.121 17.6366C140.121 27.3751 148.391 35.2733 158.589 35.2733C168.787 35.2733 177.058 27.3751 177.058 17.6366Z" fill="#222222"/>
<path d="M93.2265 96.8864C71.3451 96.8864 63.3956 75.7224 62.2714 64.527C62.0707 62.3799 63.6766 60.5012 65.925 60.2712C68.1733 60.0795 70.1407 61.6131 70.3816 63.7602C70.502 64.7954 73.3125 89.1032 93.2265 89.1032C113.14 89.1032 116.071 64.0285 116.071 63.7985C116.312 61.6514 118.28 60.0795 120.528 60.3095C122.776 60.5012 124.422 62.4182 124.181 64.5653C123.017 75.7607 115.068 96.9247 93.2265 96.9247V96.8864Z" fill="white"/>
<path d="M89.7736 96.8864C67.8923 96.8864 59.9428 75.7224 58.8186 64.527C58.6179 62.3799 60.2238 60.5012 62.4722 60.2712C64.7205 60.0795 66.6878 61.6131 66.9287 63.7602C67.0492 64.7954 69.8596 89.1032 89.7736 89.1032C109.688 89.1032 112.618 64.0285 112.618 63.7985C112.859 61.6514 114.827 60.0795 117.075 60.3095C119.323 60.5012 120.97 62.4182 120.729 64.5653C119.564 75.7607 111.615 96.9247 89.7736 96.9247V96.8864Z" fill="#222222"/>
</g>
<defs>
<clipPath id="clip0_579_766">
<rect width="180" height="97" fill="white"/>
</clipPath>
</defs>
</svg>
