<svg width="32" height="32" viewBox="0 0 32 32" fill="none" xmlns="http://www.w3.org/2000/svg">
<path d="M12.3191 25.7212C14.1523 25.7212 15.6383 24.2496 15.6383 22.4343V19.1475H12.3191C10.486 19.1475 9 20.6191 9 22.4343C9 24.2496 10.486 25.7212 12.3191 25.7212Z" fill="#0ACF83"/>
<path d="M9 15.8606C9 14.0453 10.486 12.5737 12.3191 12.5737H15.6383V19.1475H12.3191C10.486 19.1475 9 17.6759 9 15.8606Z" fill="#A259FF"/>
<path d="M9 9.28687C9 7.47158 10.486 6 12.3191 6H15.6383V12.5737H12.3191C10.486 12.5737 9 11.1022 9 9.28687Z" fill="#F24E1E"/>
<path d="M15.6383 6H18.9574C20.7906 6 22.2766 7.47158 22.2766 9.28687C22.2766 11.1022 20.7906 12.5737 18.9574 12.5737H15.6383V6Z" fill="#FF7262"/>
<path d="M22.2766 15.8606C22.2766 17.6759 20.7906 19.1475 18.9574 19.1475C17.1243 19.1475 15.6383 17.6759 15.6383 15.8606C15.6383 14.0453 17.1243 12.5737 18.9574 12.5737C20.7906 12.5737 22.2766 14.0453 22.2766 15.8606Z" fill="#1ABCFE"/>
</svg>
