<svg width="32" height="32" viewBox="0 0 32 32" fill="none" xmlns="http://www.w3.org/2000/svg">
<mask id="mask0_398_987" style="mask-type:luminance" maskUnits="userSpaceOnUse" x="8" y="8" width="17" height="16">
<path d="M8 8H24.902V23.963H8V8Z" fill="white"/>
</mask>
<g mask="url(#mask0_398_987)">
<path d="M8 8H24.902V23.963H8V8Z" fill="#FFD600"/>
</g>
<path d="M19.0511 19.9486C19.376 20.4471 19.7291 20.9246 20.477 20.9246C21.1052 20.9246 21.4348 20.6298 21.4348 20.2218C21.4348 19.7336 21.0939 19.5602 20.4028 19.276L20.0239 19.1234C18.9304 18.6854 18.2032 18.1364 18.2032 16.9769C18.2032 15.9082 19.0694 15.095 20.423 15.095C21.3869 15.095 22.0794 15.4103 22.5789 16.2359L21.3986 16.9485C21.139 16.5104 20.8582 16.3379 20.423 16.3379C19.9788 16.3379 19.6976 16.6026 19.6976 16.9485C19.6976 17.3759 19.9793 17.5489 20.6296 17.8136L21.0084 17.9662C22.2972 18.4845 23.024 19.0139 23.024 20.204C23.024 21.4864 21.9517 22.1892 20.5122 22.1892C19.1041 22.1892 18.3046 21.5219 17.8595 20.6958L19.0511 19.9486ZM13.6115 19.985C13.849 20.3868 14.2101 20.6958 14.7293 20.6958C15.2261 20.6958 15.512 20.5104 15.512 19.7899V15.0946H17.0768V20.017C17.0768 21.5099 16.1599 22.1892 14.8209 22.1892C13.611 22.1892 12.7377 21.415 12.3818 20.6958L13.6115 19.985Z" fill="#000001"/>
</svg>
