<svg width="32" height="32" viewBox="0 0 32 32" fill="none" xmlns="http://www.w3.org/2000/svg">
<path d="M22.6951 8H9.30493C8.58424 8 8 8.58246 8 9.30095V22.699C8 23.4175 8.58424 24 9.30493 24H22.6951C23.4158 24 24 23.4175 24 22.699V9.30095C24 8.58246 23.4158 8 22.6951 8Z" fill="url(#paint0_linear_489_1323)"/>
<path d="M20.3801 11.026C20.5707 11.0543 20.7423 11.1569 20.857 11.3113C20.9718 11.4657 21.0204 11.6591 20.9921 11.8492C20.9784 11.9434 20.9462 12.034 20.8973 12.1158C20.8484 12.1975 20.7838 12.2689 20.7072 12.3257C20.6306 12.3825 20.5435 12.4237 20.451 12.447C20.3584 12.4702 20.2621 12.475 20.1677 12.4611C19.2818 12.33 18.0329 13.6256 16.6424 16.2728C14.9165 19.5599 13.3208 21.1152 11.6722 20.9934C11.4801 20.979 11.3015 20.8891 11.1759 20.7435C11.0502 20.5978 10.9877 20.4084 11.002 20.2169C11.0317 19.8172 11.3796 19.5175 11.7796 19.5471C12.6899 19.6142 13.9561 18.267 15.3574 15.5986C17.0933 12.2928 18.7079 10.779 20.3801 11.026V11.026Z" fill="white"/>
<defs>
<linearGradient id="paint0_linear_489_1323" x1="8" y1="9.64864" x2="23.3011" y2="19.5939" gradientUnits="userSpaceOnUse">
<stop stop-color="#2BEAED"/>
<stop offset="1" stop-color="#0FCCCE"/>
</linearGradient>
</defs>
</svg>
