<svg width="32" height="32" viewBox="0 0 32 32" fill="none" xmlns="http://www.w3.org/2000/svg">
<path d="M17.5716 15.9472C17.5716 14.7152 16.2375 13.941 15.1761 14.557C14.1146 15.173 14.1146 16.7214 15.1761 17.3374C16.2375 17.9534 17.5716 17.1792 17.5716 15.9472ZM21.2282 12.9881C22.285 7.93646 19.96 6.35123 16.0075 10.0078C12.2875 6.52032 9.63836 7.61941 10.7656 12.9669C5.56739 14.534 5.9118 17.484 10.8079 18.9908C9.68768 23.9156 11.7802 25.7122 16.0075 21.9922C20.108 25.67 22.2842 23.948 21.1648 18.9697C26.5053 17.159 26.0262 14.5381 21.2282 12.9881ZM20.5095 12.7978C19.6717 12.6089 18.8611 12.4713 18.0366 12.3963C17.6022 11.7611 17.0962 11.1266 16.5148 10.5362C19.6837 7.49662 21.5513 8.44639 20.5095 12.7978ZM12.3297 16.9195C12.6433 17.5888 13.0554 18.2017 13.3654 18.7161C12.8606 18.6644 12.3168 18.586 11.7379 18.4836C11.9234 17.9643 12.1209 17.4429 12.3297 16.9195ZM12.2875 15.1017C12.0569 14.5482 11.8464 14.0139 11.6745 13.5165C12.2721 13.3926 12.8577 13.2801 13.3654 13.2417C12.9876 13.8353 12.6287 14.4559 12.2875 15.1017ZM12.7313 16.0317C13.2482 14.9966 13.7949 14.014 14.4011 13.136C15.4767 13.0742 16.5408 13.0797 17.5927 13.1572C18.1827 13.9792 18.7333 14.9617 19.2625 16.0317C18.8665 16.8501 18.3042 17.7932 17.6561 18.8006C16.5741 18.8825 15.4646 18.8712 14.3377 18.8006C13.7665 17.9256 13.2301 17.0039 12.7313 16.0317ZM19.6641 16.9195C19.8693 17.4175 20.059 17.9251 20.2348 18.4413C19.6923 18.5555 19.1571 18.6388 18.6284 18.6949C18.9903 18.1342 19.3336 17.5388 19.6641 16.9195ZM18.6284 13.2417C19.2047 13.3206 19.7614 13.4191 20.2982 13.5376C20.1186 14.0712 19.9146 14.5927 19.6852 15.1017C19.3581 14.4565 19.0068 13.8354 18.6284 13.2417ZM17.0009 12.3117C16.3426 12.2859 15.6729 12.2867 14.9929 12.3117C15.2906 11.9202 15.6224 11.5112 15.9863 11.0858C16.341 11.4686 16.677 11.8807 17.0009 12.3117ZM15.4791 10.5362C14.8976 11.1266 14.3916 11.7399 13.9572 12.3751C13.1327 12.4502 12.3009 12.5877 11.4631 12.7767C10.4697 8.35919 12.3102 7.49662 15.4791 10.5362ZM10.9981 18.2933C6.59471 16.9688 6.80607 14.9044 10.9559 13.6856C11.2097 14.4559 11.517 15.2382 11.8647 15.9895C11.5269 16.7664 11.2278 17.5644 10.9981 18.2933ZM11.5477 19.1811C12.2945 19.3642 13.0859 19.4522 13.915 19.5404C14.4138 20.2444 14.9304 20.8988 15.4791 21.4638C12.2522 24.5568 10.4534 23.433 11.5477 19.1811ZM15.9863 20.9354C15.604 20.5394 15.247 20.0908 14.9084 19.6038C15.6631 19.6197 16.392 19.6215 17.0854 19.6038C16.7496 20.0802 16.3828 20.5237 15.9863 20.9354ZM16.5148 21.4638C17.1035 20.8241 17.6225 20.1756 18.0789 19.5192C18.8577 19.4619 19.6468 19.3423 20.4461 19.1599C21.5503 23.6857 19.5454 24.354 16.5148 21.4638ZM20.9745 18.2511C20.7481 17.5221 20.4622 16.7664 20.1291 15.9895C20.4719 15.2382 20.7665 14.477 21.0168 13.7067C25.068 14.9326 25.3921 16.8913 20.9745 18.2511Z" fill="#26A2C1"/>
</svg>
