<svg width="32" height="32" viewBox="0 0 32 32" fill="none" xmlns="http://www.w3.org/2000/svg">
<path fill-rule="evenodd" clip-rule="evenodd" d="M16.0002 11C13.6 11 12.1002 12.1112 11.4999 14.3336C12.4 13.2224 13.4501 12.8058 14.65 13.0834C15.3346 13.2418 15.8242 13.7017 16.3656 14.211C17.2481 15.0403 18.2695 16 20.5001 16C22.8999 16 24.4 14.8888 25 12.6668C24.1002 13.778 23.0502 14.1946 21.8503 13.9166C21.1653 13.7582 20.6757 13.2983 20.1343 12.7893C19.2518 11.9594 18.2307 11 16.0002 11ZM11.4999 16C9.10005 16 7.59996 17.1112 7 19.3336C7.90012 18.2224 8.95015 17.8058 10.1497 18.0834C10.8347 18.2418 11.3243 18.7017 11.8657 19.211C12.7482 20.0403 13.7693 21 16.0002 21C18.4 21 19.9001 19.8891 20.5001 17.6668C19.6 18.778 18.5499 19.1946 17.35 18.9169C16.6654 18.7582 16.1758 18.2983 15.6344 17.7893C14.7519 16.96 13.7305 16 11.4999 16V16Z" fill="#0EA5E9"/>
</svg>
